Coordinates
version=1
nRows=19
nColumns=36
inDegrees=yes

Units are S.I. units (second, meters, Newtons, ...)
If the header above contains a line with 'inDegrees', this indicates whether rotational values are in degrees (yes) or radians (no).

endheader
time	pelvis_tilt	pelvis_list	pelvis_rotation	pelvis_tx	pelvis_ty	pelvis_tz	hip_flexion_r	hip_adduction_r	hip_rotation_r	knee_angle_r	knee_angle_r_beta	ankle_angle_r	subtalar_angle_r	mtp_angle_r	hip_flexion_l	hip_adduction_l	hip_rotation_l	knee_angle_l	knee_angle_l_beta	ankle_angle_l	subtalar_angle_l	mtp_angle_l	lumbar_extension	lumbar_bending	lumbar_rotation	arm_flex_r	arm_add_r	arm_rot_r	elbow_flex_r	pro_sup_r	arm_flex_l	arm_add_l	arm_rot_l	elbow_flex_l	pro_sup_l
     10.80000000	    -20.07667060	     -1.11096548	      2.56530110	     -0.47587502	      0.69418524	     -0.63527011	     92.35835764	    -10.57144270	      1.34645737	     89.83973007	      1.56799909	     18.78044897	    -10.07936979	     -7.49999987	     92.23000028	     -2.15807026	      5.49505854	     91.63355430	      1.59930723	     20.51857648	     -7.34931755	     -7.49999987	    -30.20107725	      1.30599137	     -2.46773269	     43.79742623	    -10.05314284	     -2.25343965	    117.92253330	    107.30114469	     38.21556901	    -14.80723203	     -2.61671874	    123.73199354	     96.91107835
     10.81000000	    -20.48952449	     -1.16581981	      2.60528161	     -0.48037742	      0.68452061	     -0.63501967	     94.17630151	    -10.61080484	      1.55148564	     91.03639852	      1.58888489	     18.59512577	     -9.95670314	     -7.49999987	     94.00445158	     -2.19589136	      5.55194068	     92.75674394	      1.61891059	     20.31969527	     -6.94940762	     -7.49999987	    -30.32201803	      1.28050779	     -2.48268907	     44.90614741	    -10.20858880	     -1.94479532	    117.53589584	    107.30266290	     39.33952297	    -14.94473364	     -2.14950374	    123.48127686	     96.88634740
     10.82000000	    -20.59728570	     -1.22620591	      2.60053544	     -0.48509025	      0.67610748	     -0.63475787	     95.50109449	    -10.57427368	      1.71474264	     91.94271792	      1.60470315	     18.53951136	    -10.00411330	     -7.49999987	     95.31828462	     -2.21756689	      5.67749898	     93.63007183	      1.63415303	     20.28152286	     -6.91723795	     -7.49999987	    -30.94173789	      1.29233339	     -2.47015928	     46.37946270	    -10.18279805	     -1.94946496	    117.50325245	    107.29914984	     40.69191335	    -14.98033356	     -2.15057302	    123.45684075	     96.87266659
     10.83000000	    -21.12565909	     -1.28624232	      2.55354822	     -0.48970122	      0.66705264	     -0.63430474	     97.30888977	    -10.47099519	      1.91652067	     92.87885492	      1.62104182	     18.22208528	     -9.92421283	     -7.49999987	     97.11271253	     -2.29030747	      5.79064900	     94.54118724	      1.65005500	     19.91847587	     -6.49258686	     -7.49999987	    -30.84012234	      1.23702101	     -2.41137139	     47.43643904	    -10.41497219	     -1.50097642	    117.11882259	    107.30099279	     41.75319281	    -15.17811803	     -1.54643571	    123.12134629	     96.81012024
     10.84000000	    -21.39952238	     -1.35547321	      2.54626387	     -0.49434316	      0.65885053	     -0.63389929	     98.76494291	    -10.39267905	      2.07670886	     93.69470131	      1.63528103	     17.94963480	    -10.02728087	     -7.49999987	     98.56204801	     -2.31001972	      5.89384175	     95.32470812	      1.66373002	     19.64699197	     -6.35013405	     -7.49999987	    -31.06785754	      1.23198103	     -2.34533949	     48.59387238	    -10.53620247	     -1.31939743	    117.00688991	    107.30367594	     42.87751225	    -15.37854705	     -1.08827614	    122.93446162	     96.73188263
     10.85000000	    -21.42203929	     -1.42009365	      2.54007849	     -0.49893725	      0.65156210	     -0.63366253	     99.86275490	    -10.33796214	      2.20176431	     94.40646513	      1.64770365	     17.89105741	    -10.09225302	     -7.49999987	     99.65645461	     -2.31427741	      5.97792204	     96.00837485	      1.67566225	     19.58670984	     -6.37896533	     -7.49999987	    -31.61367730	      1.25500046	     -2.34417453	     49.91108225	    -10.52349644	     -1.36425309	    117.03440489	    107.30200095	     43.97094581	    -15.46618771	     -1.06738486	    122.90875307	     96.71762670
     10.86000000	    -21.43643562	     -1.47116936	      2.50882747	     -0.50341936	      0.64473673	     -0.63349303	    100.91430387	    -10.27917598	      2.31657524	     95.07648684	      1.65939774	     17.77212582	    -10.12421827	     -7.49999987	    100.71596478	     -2.34932069	      6.03126724	     96.66859373	      1.68718524	     19.43415443	     -6.36811708	     -7.49999987	    -32.08745218	      1.27214129	     -2.33000310	     51.11226539	    -10.50715331	     -1.29528644	    117.00567464	    107.30516104	     44.99656364	    -15.53719732	     -0.94278934	    122.85960399	     96.70457694
     10.87000000	    -21.44524748	     -1.50890801	      2.45284539	     -0.50791228	      0.63848030	     -0.63325385	    101.88504018	    -10.17786039	      2.43628657	     95.63701138	      1.66918074	     17.57215752	    -10.12930228	     -7.49999987	    101.69621541	     -2.41668138	      6.10584243	     97.24321069	      1.69721420	     19.14515047	     -6.29921649	     -7.49999987	    -32.50899320	      1.25714564	     -2.29070710	     52.23277124	    -10.55005565	     -1.09975629	    116.90908042	    107.31420029	     45.99046265	    -15.57470289	     -0.72461569	    122.75587707	     96.68425060
     10.88000000	    -21.53365756	     -1.53092001	      2.35424154	     -0.51258992	      0.63258564	     -0.63299637	    102.85221900	     -9.99461708	      2.56480800	     96.03452380	      1.67611864	     17.02683861	    -10.21995196	     -7.49999987	    102.71613821	     -2.49344143	      6.19220515	     97.68848953	      1.70498578	     18.33251957	     -6.15059340	     -7.49999987	    -32.76882147	      1.19819272	     -2.14177319	     53.29216475	    -10.90535463	     -0.59197647	    116.70318703	    107.35138537	     47.00046837	    -15.70349954	     -0.13376132	    122.45468510	     96.60606090
     10.89000000	    -21.50867501	     -1.55701461	      2.36775656	     -0.51714537	      0.62713789	     -0.63295804	    103.64389213	     -9.92483165	      2.70467814	     96.42111303	      1.68286589	     16.96491280	    -10.30478740	     -7.49999987	    103.52845278	     -2.41764995	      6.27112508	     98.08247690	      1.71186216	     18.24192049	     -6.18672532	     -7.49999987	    -33.15353078	      1.22885461	     -2.13198961	     54.34009447	    -10.90261741	     -0.63890122	    116.75780576	    107.35462730	     47.86337325	    -15.74784896	     -0.11439699	    122.44900674	     96.58814630
     10.90000000	    -21.49401772	     -1.55458288	      2.47403041	     -0.52155886	      0.62197182	     -0.63306263	    104.45904497	    -10.04230529	      2.81031857	     96.80927623	      1.68964062	     16.59505203	    -10.39527159	     -7.49999987	    104.31473394	     -2.23982341	      6.31229167	     98.40050651	      1.71741282	     17.72843464	     -6.17447873	     -7.49999987	    -33.41346248	      1.24920673	     -2.22695586	     55.23727424	    -11.05748997	     -0.40744541	    116.75851761	    107.37826332	     48.66907601	    -15.99835062	      0.39711285	    122.41544621	     96.54011044
     10.91000000	    -21.36521717	     -1.57816399	      2.50887528	     -0.52578732	      0.61737357	     -0.63299702	    105.08031401	    -10.12169387	      2.83425331	     97.13954007	      1.69540481	     16.53059740	    -10.43604502	     -7.49999987	    104.93268514	     -2.15491496	      6.38391589	     98.72319688	      1.72304483	     17.66028830	     -6.21234069	     -7.49999987	    -33.72941049	      1.25765861	     -2.27262847	     56.05943692	    -11.09118312	     -0.43762805	    116.79584916	    107.37943957	     49.32511802	    -16.02452395	      0.42975668	    122.39766624	     96.51768358
     10.92000000	    -21.19342711	     -1.62754100	      2.56318657	     -0.52994315	      0.61311578	     -0.63283208	    105.63364082	    -10.22727199	      2.82006879	     97.47296801	      1.70122422	     16.44512864	    -10.44772614	     -7.49999987	    105.47935761	     -2.06443067	      6.46816532	     99.01441519	      1.72812755	     17.56336170	     -6.22461785	     -7.49999987	    -33.99717093	      1.29157759	     -2.32791809	     56.77353285	    -11.15982387	     -0.39413418	    116.81984772	    107.38310352	     49.93052175	    -16.04835964	      0.50763067	    122.38064093	     96.49680743
     10.93000000	    -20.90655514	     -1.76225127	      2.67955655	     -0.53404687	      0.60926992	     -0.63281668	    106.01063262	    -10.43684096	      2.73469272	     97.77368787	      1.70647278	     16.14536704	    -10.39819427	     -7.49999987	    105.90089741	     -1.89702974	      6.61668894	     99.24208346	      1.73210111	     17.09635950	     -6.26362519	     -7.49999987	    -34.27899577	      1.45012226	     -2.32730218	     57.41680163	    -11.51733202	      0.02687366	    116.82096522	    107.39833207	     50.52089008	    -16.23367233	      0.99301603	    122.29900584	     96.38766991
     10.94000000	    -20.65607457	     -1.79477208	      2.65442698	     -0.53798993	      0.60557725	     -0.63259112	    106.39753819	    -10.47140223	      2.68970233	     98.02365102	      1.71083546	     16.12297754	    -10.41734488	     -7.49999987	    106.29013192	     -1.89284482	      6.69639491	     99.47016789	      1.73608194	     17.03516731	     -6.30391094	     -7.49999987	    -34.42419769	      1.42029288	     -2.34446614	     57.87454962	    -11.56413437	      0.01366174	    116.86042677	    107.39542713	     50.90745914	    -16.29334535	      1.00111976	    122.29015620	     96.36156952
     10.95000000	    -20.18672855	     -1.89963643	      2.70272613	     -0.54177850	      0.60232754	     -0.63244945	    106.51338040	    -10.59869188	      2.58065296	     98.29136160	      1.71550789	     16.04231355	    -10.39847541	     -7.49999987	    106.46853056	     -1.81934425	      6.85387711	     99.69228618	      1.73995863	     16.57167638	     -6.39913434	     -7.49999987	    -34.70164064	      1.50332936	     -2.30057342	     58.26607991	    -11.85299631	      0.28219888	    116.96422044	    107.38094094	     51.29948576	    -16.44769282	      1.39176419	    122.27185403	     96.20538739
     10.96000000	    -19.69836078	     -1.96902690	      2.74074118	     -0.54540462	      0.59929092	     -0.63222373	    106.59979012	    -10.70565522	      2.49929716	     98.55768540	      1.72015611	     16.01751131	    -10.36772968	     -7.49999987	    106.58601330	     -1.78816433	      6.97580317	     99.90065774	      1.74359540	     16.24405806	     -6.42298417	     -7.49999987	    -34.89910103	      1.53415783	     -2.27036444	     58.47706561	    -12.12202591	      0.42735282	    117.11092443	    107.36065762	     51.55743557	    -16.50097428	      1.62679067	    122.28219003	     96.03738032
     10.97000000	    -19.26598138	     -2.00702140	      2.71946312	     -0.54893449	      0.59633852	     -0.63189547	    106.72328193	    -10.77069746	      2.40450142	     98.76405676	      1.72375797	     15.95646911	    -10.31548925	     -7.49999987	    106.71704497	     -1.80890921	      7.07674121	    100.09039498	      1.74690694	     16.10662121	     -6.40587456	     -7.49999987	    -34.89504656	      1.48717131	     -2.26444054	     58.55137346	    -12.23543073	      0.44257545	    117.16235563	    107.35166931	     51.68710243	    -16.53609704	      1.68135682	    122.29975016	     95.97657907
     10.98000000	    -18.72474423	     -2.10449649	      2.71857851	     -0.55236039	      0.59377472	     -0.63148821	    106.67704380	    -10.87070461	      2.23698905	     98.92991650	      1.72665277	     15.76696963	    -10.11368056	     -7.49999987	    106.71963188	     -1.82940699	      7.23474689	    100.25977857	      1.74986324	     15.79836192	     -6.33432078	     -7.49999987	    -34.91876083	      1.50218289	     -2.17956078	     58.54776305	    -12.40809633	      0.45960319	    117.24268179	    107.33143567	     51.78370450	    -16.52414039	      1.85777134	    122.28384638	     95.85735624
